<svg width="24" height="24" viewBox="0 0 24 24" fill="none" xmlns="http://www.w3.org/2000/svg">
<g clip-path="url(#clip0_445_1841)">
<path d="M2.7342 11.2736C2.7342 8.38087 4.04928 5.7062 6.3415 3.93579C6.78014 3.59701 6.86108 2.96672 6.5223 2.52781C6.18324 2.08917 5.55323 2.00767 5.11403 2.34701C2.32588 4.50071 0.726807 7.75421 0.726807 11.2736C0.726807 12.6532 0.972968 14.0003 1.45861 15.2778C1.61104 15.6786 1.99238 15.9251 2.39709 15.9251C2.51558 15.9251 2.63601 15.9039 2.75339 15.8594C3.27158 15.6625 3.53193 15.0828 3.335 14.5647C2.93641 13.5158 2.7342 12.4085 2.7342 11.2736Z" fill="#8B5CF6"/>
<path d="M12 0C10.7881 0 9.59572 0.191644 8.45559 0.569091C7.92906 0.743211 7.64396 1.31119 7.81808 1.83745C7.9922 2.3637 8.56018 2.64852 9.08643 2.47496C10.023 2.16483 11.0034 2.00767 12.0003 2.00767C17.1093 2.00767 21.266 6.16431 21.266 11.2736C21.266 16.3832 17.1093 20.5404 12.0003 20.5404C10.8115 20.5404 9.6597 20.3134 8.58243 19.8848L9.78987 19.724C10.3395 19.6506 10.7256 19.146 10.6524 18.5964C10.579 18.0465 10.0708 17.6618 9.5248 17.7339L5.66855 18.2479C5.11893 18.3213 4.73286 18.8259 4.80601 19.3755C4.81269 19.4253 4.82548 19.4723 4.83884 19.5193C4.84301 19.6687 4.8775 19.8189 4.95065 19.9582L6.7931 23.4632C6.97279 23.805 7.32131 24.0003 7.68234 24.0003C7.83978 24.0003 7.99971 23.963 8.14852 23.8848C8.63945 23.6267 8.82803 23.0201 8.57019 22.5294L8.2442 21.9097C9.43746 22.3314 10.7019 22.5481 12 22.5481C18.2161 22.5481 23.2731 17.4905 23.2731 11.2739C23.2731 5.05729 18.2158 0 12 0Z" fill="#8B5CF6"/>
<path d="M11.5368 10.1671C11.5368 9.30962 10.82 8.74052 9.92046 8.74052C9.27376 8.74052 8.75363 8.90213 8.36005 9.09878C8.25463 9.15497 8.2054 9.23952 8.2054 9.35913C8.2054 9.51378 8.31777 9.63282 8.47242 9.63282C8.52861 9.63282 8.59202 9.60473 8.60593 9.59778C8.92219 9.45731 9.32995 9.34494 9.80781 9.34494C10.6231 9.34494 10.9182 9.71738 10.9182 10.2164C10.9182 11.3621 8.10693 11.868 8.10693 13.3511C8.10693 13.5692 8.26158 13.7166 8.47937 13.7166H11.1924C11.361 13.7166 11.4948 13.59 11.4948 13.4212C11.4948 13.2526 11.3613 13.1191 11.1924 13.1191H8.7464C9.12607 12.2966 11.5368 11.6149 11.5368 10.1671Z" fill="#8B5CF6"/>
<path d="M15.1062 13.7514C15.282 13.7514 15.4294 13.6109 15.4294 13.4351V12.4791H15.9638C16.1254 12.4791 16.2516 12.3595 16.2516 12.1979C16.2516 12.0363 16.1254 11.9097 15.9638 11.9097H15.4294V9.1825C15.4294 8.95747 15.2678 8.77501 15.0217 8.77501H14.8812C14.7405 8.77501 14.6072 8.8451 14.5296 8.94384L12.3225 11.7623C12.2736 11.826 12.2385 11.9242 12.2385 12.0154V12.0789C12.2385 12.3039 12.4213 12.4794 12.6463 12.4794H14.7897V13.4354C14.7897 13.6112 14.9304 13.7514 15.1062 13.7514ZM12.9203 11.91L14.7897 9.49931V11.91H12.9203Z" fill="#8B5CF6"/>
<path d="M7.83216 6.74759C8.94336 5.77769 10.3686 5.24365 11.8456 5.24365C15.2125 5.24365 17.9517 7.9834 17.9517 11.3507C17.9517 11.6277 18.1768 11.8527 18.4538 11.8527C18.7308 11.8527 18.9559 11.6277 18.9559 11.3507C18.9559 7.42989 15.7661 4.24009 11.8456 4.24009C10.1258 4.24009 8.46634 4.86203 7.17212 5.99159C6.96323 6.17377 6.94181 6.49086 7.124 6.69975C7.30646 6.90808 7.62355 6.92978 7.83216 6.74759Z" fill="#8B5CF6"/>
</g>
<defs>
<clipPath id="clip0_445_1841">
<rect width="24" height="24" fill="white"/>
</clipPath>
</defs>
</svg>
